# xmcd
#
# Track frame offsets:
#  150
#  18757
#  37089
#  55045
#  68038
#  82632
#  101295
#  113879
#  134280
#  151915
#  172422
#  191130
#  205585
#  228666
#  246006
#  263800
#  275277
#  298033
#
# Disc length: 4421 seconds
#
# Revision: 0
# Processed by: cddbd v1.5.1PL2 Copyright (c) Steve Scherf et al.
# Submitted via: Collectorz.com_Music_Collector 6.11
#
DISCID=f4114312
DTITLE=Various Artist - The Blues Experience
DYEAR=1993
DGENRE=Blues
TTITLE0=U2 With BB King - When Love Comes To Town
TTITLE1=Gary Moore - Still Got The Blues (For You)
TTITLE2=Robbie Robertson - Somewhere Down The Crazy River
TTITLE3=Fleetwood Mac - Black Magic Woman
TTITLE4=Chicken Shack - I'd Rather Go Blind
TTITLE5=Cream - Crossroads
TTITLE6=JJ Cale - Cocaine
TTITLE7=Joe Cocker - Please Don't Let Me Be Misunde
TTITLE8=The Robert Cray Band - I Wonder
TTITLE9=The Commitments - Try A Little Tenderness
TTITLE10=Santana - She's Not There
TTITLE11=Canned Heat - On The Road Again
TTITLE12=Chris Rea - Nineties Blues
TTITLE13=Dire Straits - Fade To Black
TTITLE14=Tony Joe White - Steamy Windows
TTITLE15=Rufus Thomas - Walking The Dog
TTITLE16=George Thorogood - Who Do You Love
TTITLE17=Jimi Hendrix - Red House
EXTD=
EXTT0=
EXTT1=
EXTT2=
EXTT3=
EXTT4=
EXTT5=
EXTT6=
EXTT7=
EXTT8=
EXTT9=
EXTT10=
EXTT11=
EXTT12=
EXTT13=
EXTT14=
EXTT15=
EXTT16=
EXTT17=
PLAYORDER=
